<?xml version="1.0" encoding="utf-8"?>
<!-- Generator: Adobe Illustrator 16.0.0, SVG Export Plug-In . SVG Version: 6.00 Build 0)  -->
<!DOCTYPE svg PUBLIC "-//W3C//DTD SVG 1.1//EN" "http://www.w3.org/Graphics/SVG/1.1/DTD/svg11.dtd">
<svg version="1.1" id="text" xmlns="http://www.w3.org/2000/svg" xmlns:xlink="http://www.w3.org/1999/xlink" x="0px" y="0px"
	 width="375.026px" height="56.667px" viewBox="0 0 375.026 56.667" enable-background="new 0 0 375.026 56.667"
	 xml:space="preserve">
<g>
	<path fill="#F16130" d="M76.741,36.309h-9.592V21.147h2.016v13.369h7.576V36.309z"/>
	<path fill="#303234" d="M81.928,20.464l-2.759,5.692h-1.405l1.68-5.692H81.928z"/>
	<path fill="#303234" d="M95.75,36.309h-2.148l-1.487-4.227h-6.558l-1.486,4.227h-2.047l5.519-15.162h2.688L95.75,36.309z
		 M91.493,30.352l-2.658-7.444l-2.667,7.444H91.493z"/>
	<path fill="#303234" d="M111.74,35.189c-0.829,0.38-1.733,0.711-2.714,0.992c-0.981,0.282-1.93,0.423-2.846,0.423
		c-1.181,0-2.264-0.163-3.248-0.489s-1.823-0.814-2.515-1.466c-0.699-0.658-1.239-1.482-1.619-2.469
		c-0.38-0.988-0.57-2.144-0.57-3.467c0-2.423,0.708-4.336,2.124-5.738c1.415-1.402,3.358-2.103,5.829-2.103
		c0.862,0,1.743,0.104,2.643,0.311c0.899,0.207,1.869,0.558,2.907,1.054v2.393h-0.184c-0.21-0.163-0.516-0.377-0.916-0.642
		c-0.401-0.265-0.794-0.485-1.182-0.662c-0.468-0.21-1-0.385-1.594-0.524c-0.594-0.139-1.268-0.208-2.021-0.208
		c-1.697,0-3.039,0.545-4.027,1.634c-0.987,1.09-1.481,2.564-1.481,4.424c0,1.962,0.516,3.488,1.548,4.577
		c1.032,1.09,2.437,1.635,4.216,1.635c0.651,0,1.301-0.064,1.95-0.193s1.217-0.296,1.706-0.499v-3.717h-4.063v-1.771h6.059V35.189z"
		/>
	<path fill="#303234" d="M126.295,36.309h-9.989V21.147h9.989v1.792h-7.973v4.154h7.973v1.792h-7.973v5.63h7.973V36.309z"/>
	<path fill="#303234" d="M142.103,36.309h-2.495l-7.189-13.563v13.563h-1.884V21.147h3.126l6.558,12.382V21.147h1.884V36.309z"/>
	<path fill="#303234" d="M158.888,35.208c-0.374,0.163-0.711,0.316-1.013,0.458c-0.302,0.144-0.698,0.293-1.187,0.448
		c-0.414,0.13-0.864,0.24-1.349,0.331c-0.486,0.092-1.021,0.138-1.604,0.138c-1.1,0-2.1-0.154-2.999-0.464
		c-0.9-0.308-1.682-0.792-2.348-1.45c-0.651-0.646-1.161-1.464-1.527-2.459c-0.366-0.994-0.55-2.15-0.55-3.467
		c0-1.249,0.177-2.365,0.53-3.35s0.862-1.816,1.527-2.495c0.645-0.659,1.423-1.161,2.336-1.507s1.927-0.519,3.04-0.519
		c0.814,0,1.627,0.098,2.438,0.295c0.811,0.197,1.712,0.543,2.704,1.039v2.393h-0.153c-0.835-0.699-1.663-1.208-2.484-1.527
		c-0.822-0.319-1.701-0.479-2.638-0.479c-0.767,0-1.458,0.124-2.072,0.372c-0.614,0.248-1.162,0.633-1.644,1.156
		c-0.468,0.509-0.833,1.152-1.095,1.93c-0.262,0.777-0.392,1.675-0.392,2.693c0,1.066,0.144,1.982,0.433,2.75
		c0.288,0.766,0.66,1.391,1.115,1.874c0.475,0.502,1.03,0.874,1.665,1.115c0.635,0.24,1.305,0.361,2.011,0.361
		c0.971,0,1.88-0.166,2.729-0.498c0.849-0.334,1.643-0.833,2.383-1.498h0.143V35.208z"/>
	<path fill="#303234" d="M172.771,36.309h-9.989V21.147h9.989v1.792h-7.973v4.154h7.973v1.792h-7.973v5.63h7.973V36.309z"/>
	<path fill="#303234" d="M199.294,36.309h-4.039l-1.056-3.065h-5.61l-1.057,3.065h-3.94l5.601-15.162h4.5L199.294,36.309z
		 M193.26,30.464l-1.865-5.432l-1.865,5.432H193.26z"/>
	<path fill="#303234" d="M215.794,30.82c0,1.874-0.57,3.31-1.711,4.308s-2.821,1.497-5.041,1.497s-3.899-0.499-5.036-1.497
		s-1.706-2.43-1.706-4.297v-9.684h3.931v9.459c0,1.052,0.221,1.836,0.662,2.353c0.442,0.516,1.158,0.774,2.149,0.774
		c0.978,0,1.692-0.248,2.144-0.744c0.451-0.496,0.676-1.29,0.676-2.383v-9.459h3.932V30.82z"/>
	<path fill="#303234" d="M232.355,24.08h-4.735v12.229h-3.91V24.08h-4.734v-2.933h13.38V24.08z"/>
	<path fill="#303234" d="M250.495,28.733c0,2.417-0.692,4.336-2.077,5.758c-1.386,1.423-3.3,2.134-5.743,2.134
		c-2.438,0-4.349-0.711-5.733-2.134c-1.385-1.422-2.077-3.341-2.077-5.758c0-2.437,0.692-4.363,2.077-5.778
		c1.385-1.416,3.296-2.124,5.733-2.124c2.43,0,4.341,0.708,5.732,2.124C249.798,24.37,250.495,26.296,250.495,28.733z
		 M245.312,32.571c0.38-0.461,0.661-1.006,0.845-1.634c0.183-0.627,0.274-1.367,0.274-2.214c0-0.91-0.105-1.684-0.315-2.322
		s-0.485-1.154-0.825-1.548c-0.346-0.407-0.745-0.702-1.196-0.886c-0.451-0.183-0.922-0.275-1.41-0.275
		c-0.495,0-0.962,0.088-1.4,0.265c-0.438,0.177-0.84,0.469-1.207,0.876c-0.339,0.38-0.615,0.905-0.829,1.573
		c-0.214,0.669-0.32,1.444-0.32,2.327c0,0.903,0.103,1.672,0.311,2.307c0.206,0.634,0.48,1.151,0.819,1.553
		c0.34,0.4,0.736,0.695,1.191,0.886c0.455,0.19,0.933,0.285,1.436,0.285c0.502,0,0.981-0.097,1.436-0.291
		C244.575,33.279,244.972,32.979,245.312,32.571z"/>
	<path fill="#303234" d="M270.416,36.309h-3.891V26.157l-2.81,6.588h-2.699l-2.811-6.588v10.152h-3.686V21.147h4.541l3.412,7.606
		l3.4-7.606h4.542V36.309z"/>
	<path fill="#303234" d="M290.072,28.733c0,2.417-0.692,4.336-2.077,5.758c-1.385,1.423-3.299,2.134-5.743,2.134
		c-2.437,0-4.348-0.711-5.732-2.134c-1.385-1.422-2.077-3.341-2.077-5.758c0-2.437,0.692-4.363,2.077-5.778
		c1.385-1.416,3.296-2.124,5.732-2.124c2.431,0,4.341,0.708,5.732,2.124C289.375,24.37,290.072,26.296,290.072,28.733z
		 M284.888,32.571c0.381-0.461,0.663-1.006,0.846-1.634c0.184-0.627,0.275-1.367,0.275-2.214c0-0.91-0.105-1.684-0.315-2.322
		c-0.211-0.638-0.486-1.154-0.825-1.548c-0.347-0.407-0.745-0.702-1.196-0.886c-0.451-0.183-0.921-0.275-1.41-0.275
		c-0.496,0-0.962,0.088-1.4,0.265c-0.438,0.177-0.84,0.469-1.206,0.876c-0.34,0.38-0.616,0.905-0.831,1.573
		c-0.213,0.669-0.32,1.444-0.32,2.327c0,0.903,0.104,1.672,0.311,2.307c0.207,0.634,0.48,1.151,0.819,1.553
		c0.34,0.4,0.737,0.695,1.192,0.886c0.454,0.19,0.933,0.285,1.436,0.285c0.502,0,0.98-0.097,1.436-0.291
		C284.153,33.279,284.549,32.979,284.888,32.571z"/>
	<path fill="#303234" d="M307.071,31.666c0,0.733-0.147,1.389-0.442,1.965c-0.296,0.578-0.702,1.056-1.218,1.436
		c-0.598,0.448-1.254,0.768-1.97,0.958c-0.716,0.189-1.624,0.285-2.724,0.285h-6.619V21.147h5.886c1.222,0,2.116,0.041,2.683,0.122
		c0.567,0.082,1.129,0.261,1.686,0.54c0.577,0.292,1.007,0.684,1.288,1.176c0.282,0.493,0.422,1.054,0.422,1.686
		c0,0.733-0.192,1.38-0.58,1.939c-0.387,0.561-0.934,0.997-1.639,1.309V28c0.99,0.197,1.776,0.604,2.357,1.222
		C306.781,29.839,307.071,30.654,307.071,31.666z M302.061,25.434c0-0.251-0.062-0.502-0.188-0.753
		c-0.125-0.251-0.348-0.438-0.667-0.56c-0.285-0.108-0.64-0.168-1.064-0.178c-0.424-0.01-1.02-0.015-1.786-0.015h-0.367v3.208h0.611
		c0.617,0,1.144-0.01,1.578-0.031c0.434-0.021,0.777-0.088,1.028-0.204c0.354-0.156,0.584-0.358,0.692-0.605
		C302.006,26.046,302.061,25.759,302.061,25.434z M303.007,31.604c0-0.482-0.093-0.854-0.278-1.115
		c-0.187-0.261-0.504-0.458-0.951-0.585c-0.305-0.089-0.725-0.136-1.259-0.144c-0.536-0.006-1.095-0.01-1.677-0.01h-0.854v3.778
		h0.284c1.098,0,1.884-0.004,2.358-0.011c0.474-0.007,0.911-0.095,1.311-0.265c0.406-0.17,0.686-0.395,0.838-0.677
		C302.931,32.295,303.007,31.971,303.007,31.604z"/>
	<path fill="#303234" d="M319.223,36.309h-8.88v-2.688h2.485v-9.786h-2.485v-2.688h8.88v2.688h-2.485v9.786h2.485V36.309z"/>
	<path fill="#303234" d="M334.388,36.309h-10.937V21.147h3.91v12.229h7.026V36.309z"/>
	<path fill="#303234" d="M348.75,36.309h-10.967V21.147h10.967v2.933h-7.077v2.617h6.568v2.933h-6.568v3.747h7.077V36.309z"/>
</g>
<rect x="18.527" y="10.349" fill="#F16130" width="34.37" height="34.371"/>
</svg>
